<svg xmlns="http://www.w3.org/2000/svg" width="985" height="510" viewBox="0 0 985 510" role="img" aria-labelledby="title desc">
<title id="title">Special Week / Super Creek speed bands</title>
<desc id="desc">Poor Front Runner aptitude compresses the theoretical duration.</desc>
<rect width="100%" height="100%" fill="#101418"/>
<text x="42" y="32" fill="#edf2f7" font-family="Inter, Segoe UI, Arial, sans-serif" font-size="24" font-weight="700">Special Week / Super Creek</text>
<rect x="74" y="329.7" width="836" height="23.9" fill="#6f8796" opacity="0.16"/>
<rect x="74" y="273.1" width="836" height="23.9" fill="#2f9d63" opacity="0.16"/>
<rect x="74" y="148.0" width="836" height="61.2" fill="#c8842f" opacity="0.16"/>
<rect x="74" y="62.0" width="836" height="86.0" fill="#b64d82" opacity="0.16"/>
<line x1="74" y1="353.6" x2="910" y2="353.6" stroke="#dfe8f0" stroke-width="1.25" stroke-dasharray="4 4" opacity="0.72"/>
<text x="82" y="348.6" fill="#dfe8f0" font-family="Inter, Segoe UI, Arial, sans-serif" font-size="11">18.690</text>
<line x1="74" y1="329.7" x2="910" y2="329.7" stroke="#dfe8f0" stroke-width="1.25" stroke-dasharray="4 4" opacity="0.72"/>
<text x="82" y="324.7" fill="#dfe8f0" font-family="Inter, Segoe UI, Arial, sans-serif" font-size="11">18.814</text>
<line x1="74" y1="297.1" x2="910" y2="297.1" stroke="#dfe8f0" stroke-width="1.25" stroke-dasharray="4 4" opacity="0.72"/>
<text x="82" y="292.1" fill="#dfe8f0" font-family="Inter, Segoe UI, Arial, sans-serif" font-size="11">18.983</text>
<line x1="74" y1="273.1" x2="910" y2="273.1" stroke="#dfe8f0" stroke-width="1.25" stroke-dasharray="4 4" opacity="0.72"/>
<text x="82" y="268.1" fill="#dfe8f0" font-family="Inter, Segoe UI, Arial, sans-serif" font-size="11">19.107</text>
<line x1="74" y1="209.3" x2="910" y2="209.3" stroke="#dfe8f0" stroke-width="1.25" stroke-dasharray="4 4" opacity="0.72"/>
<text x="82" y="204.3" fill="#dfe8f0" font-family="Inter, Segoe UI, Arial, sans-serif" font-size="11">19.438</text>
<line x1="74" y1="148.0" x2="910" y2="148.0" stroke="#dfe8f0" stroke-width="1.25" stroke-dasharray="4 4" opacity="0.72"/>
<text x="82" y="143.0" fill="#dfe8f0" font-family="Inter, Segoe UI, Arial, sans-serif" font-size="11">19.755</text>
<line x1="74" y1="390.3" x2="910" y2="390.3" stroke="#2f3a43" stroke-width="1"/>
<text x="62" y="394.3" fill="#94a3af" text-anchor="end" font-family="Inter, Segoe UI, Arial, sans-serif" font-size="12">18.5</text>
<line x1="74" y1="293.8" x2="910" y2="293.8" stroke="#2f3a43" stroke-width="1"/>
<text x="62" y="297.8" fill="#94a3af" text-anchor="end" font-family="Inter, Segoe UI, Arial, sans-serif" font-size="12">19.0</text>
<line x1="74" y1="197.2" x2="910" y2="197.2" stroke="#2f3a43" stroke-width="1"/>
<text x="62" y="201.2" fill="#94a3af" text-anchor="end" font-family="Inter, Segoe UI, Arial, sans-serif" font-size="12">19.5</text>
<line x1="74" y1="100.6" x2="910" y2="100.6" stroke="#2f3a43" stroke-width="1"/>
<text x="62" y="104.6" fill="#94a3af" text-anchor="end" font-family="Inter, Segoe UI, Arial, sans-serif" font-size="12">20.0</text>
<line x1="120.0" y1="62" x2="120.0" y2="400" stroke="#24303a" stroke-width="1"/>
<text x="120.0" y="424" fill="#94a3af" text-anchor="middle" font-family="Inter, Segoe UI, Arial, sans-serif" font-size="12">11</text>
<line x1="224.5" y1="62" x2="224.5" y2="400" stroke="#24303a" stroke-width="1"/>
<text x="224.5" y="424" fill="#94a3af" text-anchor="middle" font-family="Inter, Segoe UI, Arial, sans-serif" font-size="12">13</text>
<line x1="329.0" y1="62" x2="329.0" y2="400" stroke="#24303a" stroke-width="1"/>
<text x="329.0" y="424" fill="#94a3af" text-anchor="middle" font-family="Inter, Segoe UI, Arial, sans-serif" font-size="12">15</text>
<line x1="433.5" y1="62" x2="433.5" y2="400" stroke="#24303a" stroke-width="1"/>
<text x="433.5" y="424" fill="#94a3af" text-anchor="middle" font-family="Inter, Segoe UI, Arial, sans-serif" font-size="12">17</text>
<line x1="538.0" y1="62" x2="538.0" y2="400" stroke="#24303a" stroke-width="1"/>
<text x="538.0" y="424" fill="#94a3af" text-anchor="middle" font-family="Inter, Segoe UI, Arial, sans-serif" font-size="12">19</text>
<line x1="642.5" y1="62" x2="642.5" y2="400" stroke="#24303a" stroke-width="1"/>
<text x="642.5" y="424" fill="#94a3af" text-anchor="middle" font-family="Inter, Segoe UI, Arial, sans-serif" font-size="12">21</text>
<line x1="747.0" y1="62" x2="747.0" y2="400" stroke="#24303a" stroke-width="1"/>
<text x="747.0" y="424" fill="#94a3af" text-anchor="middle" font-family="Inter, Segoe UI, Arial, sans-serif" font-size="12">23</text>
<line x1="851.5" y1="62" x2="851.5" y2="400" stroke="#24303a" stroke-width="1"/>
<text x="851.5" y="424" fill="#94a3af" text-anchor="middle" font-family="Inter, Segoe UI, Arial, sans-serif" font-size="12">25</text>
<rect x="74" y="62" width="836" height="338" fill="none" stroke="#52606b" stroke-width="1"/>
<text x="24" y="231" fill="#c9d3dc" transform="rotate(-90 24 231)" text-anchor="middle" font-family="Inter, Segoe UI, Arial, sans-serif" font-size="13">Skill-adjusted speed (m/s)</text>
<text x="492" y="452" fill="#c9d3dc" text-anchor="middle" font-family="Inter, Segoe UI, Arial, sans-serif" font-size="13">Frame time (s)</text>
<text x="492.0" y="346.7" fill="#dbe5ee" text-anchor="middle" font-family="Inter, Segoe UI, Arial, sans-serif" font-size="14" opacity="0.9" paint-order="stroke" stroke="#101418" stroke-width="4" stroke-linejoin="round">Base</text>
<text x="492.0" y="290.1" fill="#dbe5ee" text-anchor="middle" font-family="Inter, Segoe UI, Arial, sans-serif" font-size="14" opacity="0.9" paint-order="stroke" stroke="#101418" stroke-width="4" stroke-linejoin="round">Spot struggle only</text>
<text x="492.0" y="183.6" fill="#dbe5ee" text-anchor="middle" font-family="Inter, Segoe UI, Arial, sans-serif" font-size="14" opacity="0.9" paint-order="stroke" stroke="#101418" stroke-width="4" stroke-linejoin="round">Pace up only</text>
<text x="492.0" y="110.0" fill="#dbe5ee" text-anchor="middle" font-family="Inter, Segoe UI, Arial, sans-serif" font-size="14" opacity="0.9" paint-order="stroke" stroke="#101418" stroke-width="4" stroke-linejoin="round">Spot struggle + pace up</text>
<line x1="230.8" y1="62" x2="230.8" y2="400" stroke="#f4f7fb" stroke-width="2"/>
<text x="236.8" y="80" fill="#f4f7fb" font-family="Inter, Segoe UI, Arial, sans-serif" font-size="14" paint-order="stroke" stroke="#101418" stroke-width="4" stroke-linejoin="round">observed start 13.120s</text>
<line x1="288.2" y1="62" x2="288.2" y2="400" stroke="#71b7ff" stroke-width="2" stroke-dasharray="6 5"/>
<text x="294.2" y="388.0" fill="#71b7ff" font-family="Inter, Segoe UI, Arial, sans-serif" font-size="14" paint-order="stroke" stroke="#101418" stroke-width="4" stroke-linejoin="round">1.1s later</text>
<line x1="575.5" y1="62" x2="575.5" y2="400" stroke="#ffbf66" stroke-width="2" stroke-dasharray="6 5"/>
<text x="581.5" y="370.0" fill="#ffbf66" font-family="Inter, Segoe UI, Arial, sans-serif" font-size="14" paint-order="stroke" stroke="#101418" stroke-width="4" stroke-linejoin="round">6.6s later</text>
<line x1="805.4" y1="62" x2="805.4" y2="400" stroke="#d6b4ff" stroke-width="2" stroke-dasharray="6 5"/>
<text x="811.4" y="352.0" fill="#d6b4ff" font-family="Inter, Segoe UI, Arial, sans-serif" font-size="14" paint-order="stroke" stroke="#101418" stroke-width="4" stroke-linejoin="round">11s later</text>
<circle cx="102.0" cy="206.9" r="3.2" fill="#71b7ff" stroke="#101418" stroke-width="1"/>
<circle cx="157.7" cy="330.5" r="3.2" fill="#71b7ff" stroke="#101418" stroke-width="1"/>
<circle cx="213.4" cy="349.8" r="3.2" fill="#71b7ff" stroke="#101418" stroke-width="1"/>
<circle cx="269.0" cy="295.7" r="3.2" fill="#71b7ff" stroke="#101418" stroke-width="1"/>
<circle cx="324.7" cy="353.6" r="3.2" fill="#71b7ff" stroke="#101418" stroke-width="1"/>
<circle cx="380.4" cy="353.6" r="3.2" fill="#71b7ff" stroke="#101418" stroke-width="1"/>
<circle cx="436.1" cy="353.6" r="3.2" fill="#71b7ff" stroke="#101418" stroke-width="1"/>
<circle cx="491.7" cy="353.6" r="3.2" fill="#71b7ff" stroke="#101418" stroke-width="1"/>
<circle cx="547.4" cy="353.6" r="3.2" fill="#71b7ff" stroke="#101418" stroke-width="1"/>
<circle cx="603.1" cy="353.6" r="3.2" fill="#71b7ff" stroke="#101418" stroke-width="1"/>
<circle cx="658.8" cy="353.6" r="3.2" fill="#71b7ff" stroke="#101418" stroke-width="1"/>
<circle cx="714.5" cy="344.0" r="3.4" fill="#101418" stroke="#101418" stroke-width="1"/>
<path d="M 711.1 344.0 A 3.4 3.4 0 0 1 717.9 344.0 L 711.1 344.0 Z" fill="#71b7ff"/>
<path d="M 711.1 344.0 A 3.4 3.4 0 0 0 717.9 344.0 L 711.1 344.0 Z" fill="#ffbf66"/>
<circle cx="714.5" cy="344.0" r="3.4" fill="none" stroke="#101418" stroke-width="1"/>
<circle cx="770.1" cy="344.0" r="3.4" fill="#101418" stroke="#101418" stroke-width="1"/>
<path d="M 766.7 344.0 A 3.4 3.4 0 0 1 773.5 344.0 L 766.7 344.0 Z" fill="#71b7ff"/>
<path d="M 766.7 344.0 A 3.4 3.4 0 0 0 773.5 344.0 L 766.7 344.0 Z" fill="#ffbf66"/>
<circle cx="770.1" cy="344.0" r="3.4" fill="none" stroke="#101418" stroke-width="1"/>
<circle cx="825.8" cy="344.0" r="3.4" fill="#101418" stroke="#101418" stroke-width="1"/>
<path d="M 822.4 344.0 A 3.4 3.4 0 0 1 829.2 344.0 L 822.4 344.0 Z" fill="#71b7ff"/>
<path d="M 822.4 344.0 A 3.4 3.4 0 0 0 829.2 344.0 L 822.4 344.0 Z" fill="#ffbf66"/>
<circle cx="825.8" cy="344.0" r="3.4" fill="none" stroke="#101418" stroke-width="1"/>
<circle cx="881.5" cy="344.0" r="3.4" fill="#101418" stroke="#101418" stroke-width="1"/>
<path d="M 878.1 344.0 A 3.4 3.4 0 0 1 884.9 344.0 L 878.1 344.0 Z" fill="#71b7ff"/>
<path d="M 878.1 344.0 A 3.4 3.4 0 0 0 884.9 344.0 L 878.1 344.0 Z" fill="#ffbf66"/>
<circle cx="881.5" cy="344.0" r="3.4" fill="none" stroke="#101418" stroke-width="1"/>
<circle cx="102.0" cy="336.3" r="3.2" fill="#ffbf66" stroke="#101418" stroke-width="1"/>
<circle cx="157.7" cy="336.3" r="3.2" fill="#ffbf66" stroke="#101418" stroke-width="1"/>
<circle cx="213.4" cy="336.3" r="3.2" fill="#ffbf66" stroke="#101418" stroke-width="1"/>
<circle cx="269.0" cy="286.0" r="3.2" fill="#ffbf66" stroke="#101418" stroke-width="1"/>
<circle cx="324.7" cy="253.2" r="3.2" fill="#ffbf66" stroke="#101418" stroke-width="1"/>
<circle cx="380.4" cy="179.8" r="3.2" fill="#ffbf66" stroke="#101418" stroke-width="1"/>
<circle cx="436.1" cy="112.2" r="3.2" fill="#ffbf66" stroke="#101418" stroke-width="1"/>
<circle cx="491.7" cy="112.2" r="3.2" fill="#ffbf66" stroke="#101418" stroke-width="1"/>
<circle cx="547.4" cy="112.2" r="3.2" fill="#ffbf66" stroke="#101418" stroke-width="1"/>
<circle cx="603.1" cy="168.2" r="3.2" fill="#ffbf66" stroke="#101418" stroke-width="1"/>
<circle cx="658.8" cy="168.2" r="3.2" fill="#ffbf66" stroke="#101418" stroke-width="1"/>
<circle cx="91" cy="482" r="4.2" fill="#71b7ff" stroke="#101418" stroke-width="1"/>
<text x="118" y="486" fill="#dbe5ee" font-family="Inter, Segoe UI, Arial, sans-serif" font-size="14">Special Week (Front apt G, guts 1200)</text>
<circle cx="441" cy="482" r="4.2" fill="#ffbf66" stroke="#101418" stroke-width="1"/>
<text x="468" y="486" fill="#dbe5ee" font-family="Inter, Segoe UI, Arial, sans-serif" font-size="14">Super Creek (Front apt D, guts 1200)</text>
</svg>